<svg xmlns="http://www.w3.org/2000/svg" viewBox="0 0 800 800"><defs>
  <radialGradient id="plate" cx="45%" cy="40%" r="60%">
    <stop offset="0" stop-color="#232828"/><stop offset=".7" stop-color="#121616"/><stop offset="1" stop-color="#060808"/>
  </radialGradient>
  <radialGradient id="slate" cx="35%" cy="25%" r="90%">
    <stop offset="0" stop-color="#1D2827"/><stop offset="1" stop-color="#0B1514"/>
  </radialGradient>
  <linearGradient id="glare" x1="0" y1="0" x2="1" y2="1">
    <stop offset="0" stop-color="#fff" stop-opacity=".22"/><stop offset=".5" stop-color="#fff" stop-opacity="0"/>
  </linearGradient>
  <filter id="soft" x="-20%" y="-20%" width="140%" height="140%">
    <feDropShadow dx="0" dy="6" stdDeviation="8" flood-color="#000" flood-opacity=".55"/>
  </filter></defs>
  <rect width="800" height="800" fill="url(#slate)"/>
  <path d="M0 656 Q 400 560 800 688 V 800 H 0z" fill="#000" opacity=".18"/>
  <g filter="url(#soft)">
    <circle cx="250" cy="400" r="120" fill="#111a17"/>
    <circle cx="250" cy="400" r="103.2" fill="#F6F1E6"/><ellipse cx="339.1" cy="418.1" rx="8.4" ry="5.4" fill="#E4DCCB" transform="rotate(111 339.1 418.1)"/><ellipse cx="192.2" cy="379.1" rx="8.4" ry="5.4" fill="#E4DCCB" transform="rotate(105 192.2 379.1)"/><ellipse cx="222.8" cy="472.1" rx="8.4" ry="5.4" fill="#E4DCCB" transform="rotate(170 222.8 472.1)"/><ellipse cx="195.0" cy="350.5" rx="8.4" ry="5.4" fill="#E4DCCB" transform="rotate(15 195.0 350.5)"/><ellipse cx="200.3" cy="458.6" rx="8.4" ry="5.4" fill="#E4DCCB" transform="rotate(77 200.3 458.6)"/><ellipse cx="294.7" cy="336.4" rx="8.4" ry="5.4" fill="#E4DCCB" transform="rotate(150 294.7 336.4)"/><ellipse cx="268.4" cy="313.3" rx="8.4" ry="5.4" fill="#E4DCCB" transform="rotate(29 268.4 313.3)"/><ellipse cx="189.9" cy="350.8" rx="8.4" ry="5.4" fill="#E4DCCB" transform="rotate(176 189.9 350.8)"/><ellipse cx="188.6" cy="406.0" rx="8.4" ry="5.4" fill="#E4DCCB" transform="rotate(146 188.6 406.0)"/><ellipse cx="229.9" cy="484.9" rx="8.4" ry="5.4" fill="#E4DCCB" transform="rotate(75 229.9 484.9)"/><ellipse cx="170.7" cy="368.4" rx="8.4" ry="5.4" fill="#E4DCCB" transform="rotate(100 170.7 368.4)"/><ellipse cx="183.5" cy="413.3" rx="8.4" ry="5.4" fill="#E4DCCB" transform="rotate(8 183.5 413.3)"/><ellipse cx="252.9" cy="484.0" rx="8.4" ry="5.4" fill="#E4DCCB" transform="rotate(28 252.9 484.0)"/><ellipse cx="293.7" cy="458.6" rx="8.4" ry="5.4" fill="#E4DCCB" transform="rotate(29 293.7 458.6)"/>
    <circle cx="250" cy="400" r="45.6" fill="#D9A441"/>
    <circle cx="235.6" cy="412" r="19.2" fill="#F2CF7E" opacity=".9"/>
    <circle cx="250" cy="400" r="120" fill="url(#glare)"/>
  </g><g filter="url(#soft)">
    <circle cx="400" cy="400" r="120" fill="#111a17"/>
    <circle cx="400" cy="400" r="103.2" fill="#F6F1E6"/><ellipse cx="355.0" cy="355.2" rx="8.4" ry="5.4" fill="#E4DCCB" transform="rotate(57 355.0 355.2)"/><ellipse cx="434.5" cy="475.6" rx="8.4" ry="5.4" fill="#E4DCCB" transform="rotate(75 434.5 475.6)"/><ellipse cx="343.9" cy="336.4" rx="8.4" ry="5.4" fill="#E4DCCB" transform="rotate(67 343.9 336.4)"/><ellipse cx="415.0" cy="310.7" rx="8.4" ry="5.4" fill="#E4DCCB" transform="rotate(179 415.0 310.7)"/><ellipse cx="318.3" cy="423.7" rx="8.4" ry="5.4" fill="#E4DCCB" transform="rotate(110 318.3 423.7)"/><ellipse cx="456.9" cy="423.9" rx="8.4" ry="5.4" fill="#E4DCCB" transform="rotate(161 456.9 423.9)"/><ellipse cx="391.2" cy="466.2" rx="8.4" ry="5.4" fill="#E4DCCB" transform="rotate(90 391.2 466.2)"/><ellipse cx="455.3" cy="342.1" rx="8.4" ry="5.4" fill="#E4DCCB" transform="rotate(179 455.3 342.1)"/><ellipse cx="335.1" cy="454.9" rx="8.4" ry="5.4" fill="#E4DCCB" transform="rotate(38 335.1 454.9)"/><ellipse cx="464.2" cy="397.1" rx="8.4" ry="5.4" fill="#E4DCCB" transform="rotate(119 464.2 397.1)"/><ellipse cx="331.1" cy="346.5" rx="8.4" ry="5.4" fill="#E4DCCB" transform="rotate(167 331.1 346.5)"/><ellipse cx="357.9" cy="322.8" rx="8.4" ry="5.4" fill="#E4DCCB" transform="rotate(160 357.9 322.8)"/><ellipse cx="439.8" cy="331.9" rx="8.4" ry="5.4" fill="#E4DCCB" transform="rotate(79 439.8 331.9)"/><ellipse cx="347.6" cy="446.2" rx="8.4" ry="5.4" fill="#E4DCCB" transform="rotate(125 347.6 446.2)"/>
    <circle cx="400" cy="400" r="45.6" fill="#D9A441"/>
    <circle cx="385.6" cy="412" r="19.2" fill="#F2CF7E" opacity=".9"/>
    <circle cx="400" cy="400" r="120" fill="url(#glare)"/>
  </g><g filter="url(#soft)">
    <circle cx="550" cy="400" r="120" fill="#111a17"/>
    <circle cx="550" cy="400" r="103.2" fill="#F6F1E6"/><ellipse cx="600.5" cy="478.2" rx="8.4" ry="5.4" fill="#E4DCCB" transform="rotate(85 600.5 478.2)"/><ellipse cx="614.6" cy="418.8" rx="8.4" ry="5.4" fill="#E4DCCB" transform="rotate(41 614.6 418.8)"/><ellipse cx="505.3" cy="344.0" rx="8.4" ry="5.4" fill="#E4DCCB" transform="rotate(47 505.3 344.0)"/><ellipse cx="509.8" cy="334.1" rx="8.4" ry="5.4" fill="#E4DCCB" transform="rotate(176 509.8 334.1)"/><ellipse cx="503.7" cy="361.5" rx="8.4" ry="5.4" fill="#E4DCCB" transform="rotate(134 503.7 361.5)"/><ellipse cx="524.6" cy="322.6" rx="8.4" ry="5.4" fill="#E4DCCB" transform="rotate(144 524.6 322.6)"/><ellipse cx="552.1" cy="472.8" rx="8.4" ry="5.4" fill="#E4DCCB" transform="rotate(110 552.1 472.8)"/><ellipse cx="476.5" cy="351.9" rx="8.4" ry="5.4" fill="#E4DCCB" transform="rotate(24 476.5 351.9)"/><ellipse cx="589.1" cy="344.2" rx="8.4" ry="5.4" fill="#E4DCCB" transform="rotate(145 589.1 344.2)"/><ellipse cx="495.5" cy="463.7" rx="8.4" ry="5.4" fill="#E4DCCB" transform="rotate(66 495.5 463.7)"/><ellipse cx="627.9" cy="435.0" rx="8.4" ry="5.4" fill="#E4DCCB" transform="rotate(92 627.9 435.0)"/><ellipse cx="487.9" cy="394.4" rx="8.4" ry="5.4" fill="#E4DCCB" transform="rotate(23 487.9 394.4)"/><ellipse cx="610.3" cy="337.6" rx="8.4" ry="5.4" fill="#E4DCCB" transform="rotate(146 610.3 337.6)"/><ellipse cx="580.9" cy="461.6" rx="8.4" ry="5.4" fill="#E4DCCB" transform="rotate(179 580.9 461.6)"/>
    <circle cx="550" cy="400" r="45.6" fill="#D9A441"/>
    <circle cx="535.6" cy="412" r="19.2" fill="#F2CF7E" opacity=".9"/>
    <circle cx="550" cy="400" r="120" fill="url(#glare)"/>
  </g><g filter="url(#soft)">
    <circle cx="325" cy="270" r="105" fill="#111a17"/>
    <circle cx="325" cy="270" r="90.3" fill="#F6F1E6"/><ellipse cx="400.9" cy="248.3" rx="7.4" ry="4.7" fill="#E4DCCB" transform="rotate(179 400.9 248.3)"/><ellipse cx="342.2" cy="343.8" rx="7.4" ry="4.7" fill="#E4DCCB" transform="rotate(106 342.2 343.8)"/><ellipse cx="374.7" cy="293.8" rx="7.4" ry="4.7" fill="#E4DCCB" transform="rotate(2 374.7 293.8)"/><ellipse cx="381.2" cy="240.7" rx="7.4" ry="4.7" fill="#E4DCCB" transform="rotate(134 381.2 240.7)"/><ellipse cx="305.8" cy="323.2" rx="7.4" ry="4.7" fill="#E4DCCB" transform="rotate(23 305.8 323.2)"/><ellipse cx="283.4" cy="202.0" rx="7.4" ry="4.7" fill="#E4DCCB" transform="rotate(4 283.4 202.0)"/><ellipse cx="399.9" cy="284.2" rx="7.4" ry="4.7" fill="#E4DCCB" transform="rotate(83 399.9 284.2)"/><ellipse cx="306.9" cy="219.7" rx="7.4" ry="4.7" fill="#E4DCCB" transform="rotate(69 306.9 219.7)"/><ellipse cx="398.9" cy="283.5" rx="7.4" ry="4.7" fill="#E4DCCB" transform="rotate(158 398.9 283.5)"/><ellipse cx="268.9" cy="225.0" rx="7.4" ry="4.7" fill="#E4DCCB" transform="rotate(66 268.9 225.0)"/><ellipse cx="385.1" cy="267.5" rx="7.4" ry="4.7" fill="#E4DCCB" transform="rotate(92 385.1 267.5)"/><ellipse cx="383.1" cy="308.0" rx="7.4" ry="4.7" fill="#E4DCCB" transform="rotate(106 383.1 308.0)"/><ellipse cx="394.8" cy="309.0" rx="7.4" ry="4.7" fill="#E4DCCB" transform="rotate(64 394.8 309.0)"/><ellipse cx="361.3" cy="331.1" rx="7.4" ry="4.7" fill="#E4DCCB" transform="rotate(0 361.3 331.1)"/>
    <circle cx="325" cy="270" r="39.9" fill="#D9A441"/>
    <circle cx="312.4" cy="280.5" r="16.8" fill="#F2CF7E" opacity=".9"/>
    <circle cx="325" cy="270" r="105" fill="url(#glare)"/>
  </g><g filter="url(#soft)">
    <circle cx="475" cy="270" r="105" fill="#111a17"/>
    <circle cx="475" cy="270" r="90.3" fill="#F6F1E6"/><ellipse cx="538.8" cy="277.7" rx="7.4" ry="4.7" fill="#E4DCCB" transform="rotate(177 538.8 277.7)"/><ellipse cx="519.3" cy="332.2" rx="7.4" ry="4.7" fill="#E4DCCB" transform="rotate(120 519.3 332.2)"/><ellipse cx="447.6" cy="344.0" rx="7.4" ry="4.7" fill="#E4DCCB" transform="rotate(171 447.6 344.0)"/><ellipse cx="548.6" cy="236.6" rx="7.4" ry="4.7" fill="#E4DCCB" transform="rotate(16 548.6 236.6)"/><ellipse cx="450.4" cy="200.1" rx="7.4" ry="4.7" fill="#E4DCCB" transform="rotate(6 450.4 200.1)"/><ellipse cx="452.2" cy="348.3" rx="7.4" ry="4.7" fill="#E4DCCB" transform="rotate(156 452.2 348.3)"/><ellipse cx="475.9" cy="193.1" rx="7.4" ry="4.7" fill="#E4DCCB" transform="rotate(46 475.9 193.1)"/><ellipse cx="462.0" cy="338.4" rx="7.4" ry="4.7" fill="#E4DCCB" transform="rotate(89 462.0 338.4)"/><ellipse cx="539.6" cy="251.3" rx="7.4" ry="4.7" fill="#E4DCCB" transform="rotate(73 539.6 251.3)"/><ellipse cx="477.4" cy="199.5" rx="7.4" ry="4.7" fill="#E4DCCB" transform="rotate(111 477.4 199.5)"/><ellipse cx="493.8" cy="323.6" rx="7.4" ry="4.7" fill="#E4DCCB" transform="rotate(49 493.8 323.6)"/><ellipse cx="446.1" cy="318.6" rx="7.4" ry="4.7" fill="#E4DCCB" transform="rotate(90 446.1 318.6)"/><ellipse cx="408.8" cy="223.7" rx="7.4" ry="4.7" fill="#E4DCCB" transform="rotate(5 408.8 223.7)"/><ellipse cx="412.0" cy="292.7" rx="7.4" ry="4.7" fill="#E4DCCB" transform="rotate(41 412.0 292.7)"/>
    <circle cx="475" cy="270" r="39.9" fill="#D9A441"/>
    <circle cx="462.4" cy="280.5" r="16.8" fill="#F2CF7E" opacity=".9"/>
    <circle cx="475" cy="270" r="105" fill="url(#glare)"/>
  </g>
  <text x="400" y="764" text-anchor="middle" font-family="Jost, sans-serif" font-size="27" letter-spacing="2" fill="#BC914C" opacity=".55">ФОТО БЛЮДА</text>
  </svg>
