<svg xmlns="http://www.w3.org/2000/svg" viewBox="0 0 800 800"><defs>
  <radialGradient id="plate" cx="45%" cy="40%" r="60%">
    <stop offset="0" stop-color="#232828"/><stop offset=".7" stop-color="#121616"/><stop offset="1" stop-color="#060808"/>
  </radialGradient>
  <radialGradient id="slate" cx="35%" cy="25%" r="90%">
    <stop offset="0" stop-color="#1D2827"/><stop offset="1" stop-color="#0B1514"/>
  </radialGradient>
  <linearGradient id="glare" x1="0" y1="0" x2="1" y2="1">
    <stop offset="0" stop-color="#fff" stop-opacity=".22"/><stop offset=".5" stop-color="#fff" stop-opacity="0"/>
  </linearGradient>
  <filter id="soft" x="-20%" y="-20%" width="140%" height="140%">
    <feDropShadow dx="0" dy="6" stdDeviation="8" flood-color="#000" flood-opacity=".55"/>
  </filter></defs>
  <rect width="800" height="800" fill="url(#slate)"/>
  <path d="M0 656 Q 400 560 800 688 V 800 H 0z" fill="#000" opacity=".18"/>
  <g filter="url(#soft)">
    <circle cx="250" cy="400" r="120" fill="#111a17"/>
    <circle cx="250" cy="400" r="103.2" fill="#F6F1E6"/><ellipse cx="201.3" cy="460.8" rx="8.4" ry="5.4" fill="#E4DCCB" transform="rotate(64 201.3 460.8)"/><ellipse cx="296.1" cy="441.8" rx="8.4" ry="5.4" fill="#E4DCCB" transform="rotate(13 296.1 441.8)"/><ellipse cx="193.7" cy="465.1" rx="8.4" ry="5.4" fill="#E4DCCB" transform="rotate(17 193.7 465.1)"/><ellipse cx="312.0" cy="468.1" rx="8.4" ry="5.4" fill="#E4DCCB" transform="rotate(46 312.0 468.1)"/><ellipse cx="306.3" cy="325.8" rx="8.4" ry="5.4" fill="#E4DCCB" transform="rotate(109 306.3 325.8)"/><ellipse cx="331.2" cy="440.1" rx="8.4" ry="5.4" fill="#E4DCCB" transform="rotate(46 331.2 440.1)"/><ellipse cx="323.4" cy="457.0" rx="8.4" ry="5.4" fill="#E4DCCB" transform="rotate(100 323.4 457.0)"/><ellipse cx="213.8" cy="451.6" rx="8.4" ry="5.4" fill="#E4DCCB" transform="rotate(73 213.8 451.6)"/><ellipse cx="196.6" cy="325.5" rx="8.4" ry="5.4" fill="#E4DCCB" transform="rotate(80 196.6 325.5)"/><ellipse cx="319.0" cy="409.7" rx="8.4" ry="5.4" fill="#E4DCCB" transform="rotate(120 319.0 409.7)"/><ellipse cx="275.4" cy="320.9" rx="8.4" ry="5.4" fill="#E4DCCB" transform="rotate(169 275.4 320.9)"/><ellipse cx="170.4" cy="420.0" rx="8.4" ry="5.4" fill="#E4DCCB" transform="rotate(19 170.4 420.0)"/><ellipse cx="319.3" cy="456.5" rx="8.4" ry="5.4" fill="#E4DCCB" transform="rotate(162 319.3 456.5)"/><ellipse cx="328.9" cy="433.1" rx="8.4" ry="5.4" fill="#E4DCCB" transform="rotate(62 328.9 433.1)"/>
    <circle cx="250" cy="400" r="45.6" fill="#F37D2F"/>
    <circle cx="235.6" cy="412" r="19.2" fill="#FFB48A" opacity=".9"/>
    <circle cx="250" cy="400" r="120" fill="url(#glare)"/>
  </g><g filter="url(#soft)">
    <circle cx="400" cy="400" r="120" fill="#111a17"/>
    <circle cx="400" cy="400" r="103.2" fill="#F6F1E6"/><ellipse cx="421.7" cy="458.1" rx="8.4" ry="5.4" fill="#E4DCCB" transform="rotate(126 421.7 458.1)"/><ellipse cx="327.1" cy="362.1" rx="8.4" ry="5.4" fill="#E4DCCB" transform="rotate(76 327.1 362.1)"/><ellipse cx="327.3" cy="350.6" rx="8.4" ry="5.4" fill="#E4DCCB" transform="rotate(148 327.3 350.6)"/><ellipse cx="469.2" cy="385.1" rx="8.4" ry="5.4" fill="#E4DCCB" transform="rotate(103 469.2 385.1)"/><ellipse cx="453.2" cy="369.1" rx="8.4" ry="5.4" fill="#E4DCCB" transform="rotate(58 453.2 369.1)"/><ellipse cx="318.9" cy="379.7" rx="8.4" ry="5.4" fill="#E4DCCB" transform="rotate(94 318.9 379.7)"/><ellipse cx="343.4" cy="438.1" rx="8.4" ry="5.4" fill="#E4DCCB" transform="rotate(107 343.4 438.1)"/><ellipse cx="394.2" cy="327.7" rx="8.4" ry="5.4" fill="#E4DCCB" transform="rotate(34 394.2 327.7)"/><ellipse cx="412.5" cy="333.1" rx="8.4" ry="5.4" fill="#E4DCCB" transform="rotate(58 412.5 333.1)"/><ellipse cx="463.5" cy="358.4" rx="8.4" ry="5.4" fill="#E4DCCB" transform="rotate(74 463.5 358.4)"/><ellipse cx="395.6" cy="464.2" rx="8.4" ry="5.4" fill="#E4DCCB" transform="rotate(67 395.6 464.2)"/><ellipse cx="486.7" cy="383.3" rx="8.4" ry="5.4" fill="#E4DCCB" transform="rotate(10 486.7 383.3)"/><ellipse cx="352.5" cy="456.6" rx="8.4" ry="5.4" fill="#E4DCCB" transform="rotate(99 352.5 456.6)"/><ellipse cx="398.0" cy="334.1" rx="8.4" ry="5.4" fill="#E4DCCB" transform="rotate(156 398.0 334.1)"/>
    <circle cx="400" cy="400" r="45.6" fill="#F37D2F"/>
    <circle cx="385.6" cy="412" r="19.2" fill="#FFB48A" opacity=".9"/>
    <circle cx="400" cy="400" r="120" fill="url(#glare)"/>
  </g><g filter="url(#soft)">
    <circle cx="550" cy="400" r="120" fill="#111a17"/>
    <circle cx="550" cy="400" r="103.2" fill="#F6F1E6"/><ellipse cx="464.4" cy="375.6" rx="8.4" ry="5.4" fill="#E4DCCB" transform="rotate(102 464.4 375.6)"/><ellipse cx="596.6" cy="355.3" rx="8.4" ry="5.4" fill="#E4DCCB" transform="rotate(33 596.6 355.3)"/><ellipse cx="617.8" cy="454.3" rx="8.4" ry="5.4" fill="#E4DCCB" transform="rotate(29 617.8 454.3)"/><ellipse cx="567.5" cy="465.1" rx="8.4" ry="5.4" fill="#E4DCCB" transform="rotate(32 567.5 465.1)"/><ellipse cx="619.2" cy="436.8" rx="8.4" ry="5.4" fill="#E4DCCB" transform="rotate(64 619.2 436.8)"/><ellipse cx="620.8" cy="374.7" rx="8.4" ry="5.4" fill="#E4DCCB" transform="rotate(70 620.8 374.7)"/><ellipse cx="511.9" cy="456.1" rx="8.4" ry="5.4" fill="#E4DCCB" transform="rotate(134 511.9 456.1)"/><ellipse cx="464.2" cy="417.1" rx="8.4" ry="5.4" fill="#E4DCCB" transform="rotate(159 464.2 417.1)"/><ellipse cx="480.9" cy="461.4" rx="8.4" ry="5.4" fill="#E4DCCB" transform="rotate(149 480.9 461.4)"/><ellipse cx="568.1" cy="484.6" rx="8.4" ry="5.4" fill="#E4DCCB" transform="rotate(168 568.1 484.6)"/><ellipse cx="466.8" cy="390.2" rx="8.4" ry="5.4" fill="#E4DCCB" transform="rotate(142 466.8 390.2)"/><ellipse cx="478.0" cy="392.3" rx="8.4" ry="5.4" fill="#E4DCCB" transform="rotate(166 478.0 392.3)"/><ellipse cx="625.5" cy="345.8" rx="8.4" ry="5.4" fill="#E4DCCB" transform="rotate(17 625.5 345.8)"/><ellipse cx="540.8" cy="308.1" rx="8.4" ry="5.4" fill="#E4DCCB" transform="rotate(4 540.8 308.1)"/>
    <circle cx="550" cy="400" r="45.6" fill="#F37D2F"/>
    <circle cx="535.6" cy="412" r="19.2" fill="#FFB48A" opacity=".9"/>
    <circle cx="550" cy="400" r="120" fill="url(#glare)"/>
  </g><g filter="url(#soft)">
    <circle cx="325" cy="270" r="105" fill="#111a17"/>
    <circle cx="325" cy="270" r="90.3" fill="#F6F1E6"/><ellipse cx="276.7" cy="229.5" rx="7.4" ry="4.7" fill="#E4DCCB" transform="rotate(163 276.7 229.5)"/><ellipse cx="311.3" cy="350.0" rx="7.4" ry="4.7" fill="#E4DCCB" transform="rotate(7 311.3 350.0)"/><ellipse cx="297.1" cy="217.8" rx="7.4" ry="4.7" fill="#E4DCCB" transform="rotate(82 297.1 217.8)"/><ellipse cx="320.3" cy="323.5" rx="7.4" ry="4.7" fill="#E4DCCB" transform="rotate(123 320.3 323.5)"/><ellipse cx="396.7" cy="302.3" rx="7.4" ry="4.7" fill="#E4DCCB" transform="rotate(35 396.7 302.3)"/><ellipse cx="376.7" cy="248.6" rx="7.4" ry="4.7" fill="#E4DCCB" transform="rotate(22 376.7 248.6)"/><ellipse cx="298.8" cy="223.4" rx="7.4" ry="4.7" fill="#E4DCCB" transform="rotate(114 298.8 223.4)"/><ellipse cx="275.8" cy="237.6" rx="7.4" ry="4.7" fill="#E4DCCB" transform="rotate(48 275.8 237.6)"/><ellipse cx="389.8" cy="312.3" rx="7.4" ry="4.7" fill="#E4DCCB" transform="rotate(116 389.8 312.3)"/><ellipse cx="263.9" cy="276.3" rx="7.4" ry="4.7" fill="#E4DCCB" transform="rotate(128 263.9 276.3)"/><ellipse cx="385.9" cy="316.1" rx="7.4" ry="4.7" fill="#E4DCCB" transform="rotate(43 385.9 316.1)"/><ellipse cx="275.5" cy="230.1" rx="7.4" ry="4.7" fill="#E4DCCB" transform="rotate(92 275.5 230.1)"/><ellipse cx="338.2" cy="216.9" rx="7.4" ry="4.7" fill="#E4DCCB" transform="rotate(123 338.2 216.9)"/><ellipse cx="264.5" cy="289.3" rx="7.4" ry="4.7" fill="#E4DCCB" transform="rotate(134 264.5 289.3)"/>
    <circle cx="325" cy="270" r="39.9" fill="#F37D2F"/>
    <circle cx="312.4" cy="280.5" r="16.8" fill="#FFB48A" opacity=".9"/>
    <circle cx="325" cy="270" r="105" fill="url(#glare)"/>
  </g><g filter="url(#soft)">
    <circle cx="475" cy="270" r="105" fill="#111a17"/>
    <circle cx="475" cy="270" r="90.3" fill="#F6F1E6"/><ellipse cx="407.2" cy="245.7" rx="7.4" ry="4.7" fill="#E4DCCB" transform="rotate(140 407.2 245.7)"/><ellipse cx="405.1" cy="285.5" rx="7.4" ry="4.7" fill="#E4DCCB" transform="rotate(91 405.1 285.5)"/><ellipse cx="536.7" cy="270.5" rx="7.4" ry="4.7" fill="#E4DCCB" transform="rotate(113 536.7 270.5)"/><ellipse cx="511.1" cy="312.3" rx="7.4" ry="4.7" fill="#E4DCCB" transform="rotate(44 511.1 312.3)"/><ellipse cx="422.8" cy="238.4" rx="7.4" ry="4.7" fill="#E4DCCB" transform="rotate(29 422.8 238.4)"/><ellipse cx="437.1" cy="209.4" rx="7.4" ry="4.7" fill="#E4DCCB" transform="rotate(121 437.1 209.4)"/><ellipse cx="417.6" cy="221.8" rx="7.4" ry="4.7" fill="#E4DCCB" transform="rotate(80 417.6 221.8)"/><ellipse cx="541.2" cy="244.3" rx="7.4" ry="4.7" fill="#E4DCCB" transform="rotate(32 541.2 244.3)"/><ellipse cx="458.8" cy="330.2" rx="7.4" ry="4.7" fill="#E4DCCB" transform="rotate(98 458.8 330.2)"/><ellipse cx="412.6" cy="312.0" rx="7.4" ry="4.7" fill="#E4DCCB" transform="rotate(73 412.6 312.0)"/><ellipse cx="415.0" cy="318.0" rx="7.4" ry="4.7" fill="#E4DCCB" transform="rotate(3 415.0 318.0)"/><ellipse cx="538.8" cy="254.0" rx="7.4" ry="4.7" fill="#E4DCCB" transform="rotate(57 538.8 254.0)"/><ellipse cx="521.5" cy="240.0" rx="7.4" ry="4.7" fill="#E4DCCB" transform="rotate(39 521.5 240.0)"/><ellipse cx="545.5" cy="253.5" rx="7.4" ry="4.7" fill="#E4DCCB" transform="rotate(87 545.5 253.5)"/>
    <circle cx="475" cy="270" r="39.9" fill="#F37D2F"/>
    <circle cx="462.4" cy="280.5" r="16.8" fill="#FFB48A" opacity=".9"/>
    <circle cx="475" cy="270" r="105" fill="url(#glare)"/>
  </g>
  <text x="400" y="764" text-anchor="middle" font-family="Jost, sans-serif" font-size="27" letter-spacing="2" fill="#BC914C" opacity=".55">ФОТО БЛЮДА</text>
  </svg>
