<svg xmlns="http://www.w3.org/2000/svg" viewBox="0 0 800 800"><defs>
  <radialGradient id="plate" cx="45%" cy="40%" r="60%">
    <stop offset="0" stop-color="#232828"/><stop offset=".7" stop-color="#121616"/><stop offset="1" stop-color="#060808"/>
  </radialGradient>
  <radialGradient id="slate" cx="35%" cy="25%" r="90%">
    <stop offset="0" stop-color="#1D2827"/><stop offset="1" stop-color="#0B1514"/>
  </radialGradient>
  <linearGradient id="glare" x1="0" y1="0" x2="1" y2="1">
    <stop offset="0" stop-color="#fff" stop-opacity=".22"/><stop offset=".5" stop-color="#fff" stop-opacity="0"/>
  </linearGradient>
  <filter id="soft" x="-20%" y="-20%" width="140%" height="140%">
    <feDropShadow dx="0" dy="6" stdDeviation="8" flood-color="#000" flood-opacity=".55"/>
  </filter></defs>
  <rect width="800" height="800" fill="url(#slate)"/>
  <path d="M0 656 Q 400 560 800 688 V 800 H 0z" fill="#000" opacity=".18"/>
  <g filter="url(#soft)">
    <circle cx="250" cy="400" r="120" fill="#111a17"/>
    <circle cx="250" cy="400" r="103.2" fill="#F6F1E6"/><ellipse cx="193.0" cy="455.1" rx="8.4" ry="5.4" fill="#E4DCCB" transform="rotate(110 193.0 455.1)"/><ellipse cx="206.0" cy="340.7" rx="8.4" ry="5.4" fill="#E4DCCB" transform="rotate(15 206.0 340.7)"/><ellipse cx="302.9" cy="458.3" rx="8.4" ry="5.4" fill="#E4DCCB" transform="rotate(134 302.9 458.3)"/><ellipse cx="300.7" cy="474.5" rx="8.4" ry="5.4" fill="#E4DCCB" transform="rotate(13 300.7 474.5)"/><ellipse cx="165.2" cy="371.8" rx="8.4" ry="5.4" fill="#E4DCCB" transform="rotate(121 165.2 371.8)"/><ellipse cx="218.8" cy="478.1" rx="8.4" ry="5.4" fill="#E4DCCB" transform="rotate(148 218.8 478.1)"/><ellipse cx="331.7" cy="399.8" rx="8.4" ry="5.4" fill="#E4DCCB" transform="rotate(168 331.7 399.8)"/><ellipse cx="306.2" cy="443.4" rx="8.4" ry="5.4" fill="#E4DCCB" transform="rotate(21 306.2 443.4)"/><ellipse cx="220.4" cy="320.1" rx="8.4" ry="5.4" fill="#E4DCCB" transform="rotate(75 220.4 320.1)"/><ellipse cx="267.5" cy="338.3" rx="8.4" ry="5.4" fill="#E4DCCB" transform="rotate(43 267.5 338.3)"/><ellipse cx="301.3" cy="367.8" rx="8.4" ry="5.4" fill="#E4DCCB" transform="rotate(38 301.3 367.8)"/><ellipse cx="297.6" cy="480.0" rx="8.4" ry="5.4" fill="#E4DCCB" transform="rotate(167 297.6 480.0)"/><ellipse cx="189.0" cy="356.0" rx="8.4" ry="5.4" fill="#E4DCCB" transform="rotate(77 189.0 356.0)"/><ellipse cx="298.5" cy="475.2" rx="8.4" ry="5.4" fill="#E4DCCB" transform="rotate(73 298.5 475.2)"/>
    <circle cx="250" cy="400" r="45.6" fill="#6B3B1E"/>
    <circle cx="235.6" cy="412" r="19.2" fill="#A2643A" opacity=".9"/>
    <circle cx="250" cy="400" r="120" fill="url(#glare)"/>
  </g><g filter="url(#soft)">
    <circle cx="400" cy="400" r="120" fill="#111a17"/>
    <circle cx="400" cy="400" r="103.2" fill="#F6F1E6"/><ellipse cx="332.6" cy="383.1" rx="8.4" ry="5.4" fill="#E4DCCB" transform="rotate(13 332.6 383.1)"/><ellipse cx="346.3" cy="369.8" rx="8.4" ry="5.4" fill="#E4DCCB" transform="rotate(3 346.3 369.8)"/><ellipse cx="316.7" cy="405.8" rx="8.4" ry="5.4" fill="#E4DCCB" transform="rotate(77 316.7 405.8)"/><ellipse cx="445.2" cy="350.8" rx="8.4" ry="5.4" fill="#E4DCCB" transform="rotate(143 445.2 350.8)"/><ellipse cx="403.3" cy="480.7" rx="8.4" ry="5.4" fill="#E4DCCB" transform="rotate(99 403.3 480.7)"/><ellipse cx="339.6" cy="404.7" rx="8.4" ry="5.4" fill="#E4DCCB" transform="rotate(60 339.6 404.7)"/><ellipse cx="444.2" cy="480.3" rx="8.4" ry="5.4" fill="#E4DCCB" transform="rotate(139 444.2 480.3)"/><ellipse cx="320.0" cy="394.6" rx="8.4" ry="5.4" fill="#E4DCCB" transform="rotate(154 320.0 394.6)"/><ellipse cx="462.4" cy="379.3" rx="8.4" ry="5.4" fill="#E4DCCB" transform="rotate(66 462.4 379.3)"/><ellipse cx="465.8" cy="455.0" rx="8.4" ry="5.4" fill="#E4DCCB" transform="rotate(78 465.8 455.0)"/><ellipse cx="455.2" cy="376.2" rx="8.4" ry="5.4" fill="#E4DCCB" transform="rotate(150 455.2 376.2)"/><ellipse cx="332.2" cy="356.7" rx="8.4" ry="5.4" fill="#E4DCCB" transform="rotate(44 332.2 356.7)"/><ellipse cx="377.2" cy="464.2" rx="8.4" ry="5.4" fill="#E4DCCB" transform="rotate(32 377.2 464.2)"/><ellipse cx="360.2" cy="315.6" rx="8.4" ry="5.4" fill="#E4DCCB" transform="rotate(70 360.2 315.6)"/>
    <circle cx="400" cy="400" r="45.6" fill="#6B3B1E"/>
    <circle cx="385.6" cy="412" r="19.2" fill="#A2643A" opacity=".9"/>
    <circle cx="400" cy="400" r="120" fill="url(#glare)"/>
  </g><g filter="url(#soft)">
    <circle cx="550" cy="400" r="120" fill="#111a17"/>
    <circle cx="550" cy="400" r="103.2" fill="#F6F1E6"/><ellipse cx="510.6" cy="344.8" rx="8.4" ry="5.4" fill="#E4DCCB" transform="rotate(34 510.6 344.8)"/><ellipse cx="628.1" cy="382.2" rx="8.4" ry="5.4" fill="#E4DCCB" transform="rotate(107 628.1 382.2)"/><ellipse cx="579.0" cy="336.6" rx="8.4" ry="5.4" fill="#E4DCCB" transform="rotate(35 579.0 336.6)"/><ellipse cx="497.9" cy="341.0" rx="8.4" ry="5.4" fill="#E4DCCB" transform="rotate(117 497.9 341.0)"/><ellipse cx="619.0" cy="340.6" rx="8.4" ry="5.4" fill="#E4DCCB" transform="rotate(58 619.0 340.6)"/><ellipse cx="633.0" cy="398.5" rx="8.4" ry="5.4" fill="#E4DCCB" transform="rotate(58 633.0 398.5)"/><ellipse cx="596.5" cy="354.2" rx="8.4" ry="5.4" fill="#E4DCCB" transform="rotate(161 596.5 354.2)"/><ellipse cx="562.8" cy="325.1" rx="8.4" ry="5.4" fill="#E4DCCB" transform="rotate(70 562.8 325.1)"/><ellipse cx="563.3" cy="475.5" rx="8.4" ry="5.4" fill="#E4DCCB" transform="rotate(118 563.3 475.5)"/><ellipse cx="500.1" cy="332.6" rx="8.4" ry="5.4" fill="#E4DCCB" transform="rotate(88 500.1 332.6)"/><ellipse cx="496.4" cy="428.3" rx="8.4" ry="5.4" fill="#E4DCCB" transform="rotate(73 496.4 428.3)"/><ellipse cx="617.4" cy="411.7" rx="8.4" ry="5.4" fill="#E4DCCB" transform="rotate(52 617.4 411.7)"/><ellipse cx="494.5" cy="353.8" rx="8.4" ry="5.4" fill="#E4DCCB" transform="rotate(1 494.5 353.8)"/><ellipse cx="623.5" cy="409.4" rx="8.4" ry="5.4" fill="#E4DCCB" transform="rotate(57 623.5 409.4)"/>
    <circle cx="550" cy="400" r="45.6" fill="#6B3B1E"/>
    <circle cx="535.6" cy="412" r="19.2" fill="#A2643A" opacity=".9"/>
    <circle cx="550" cy="400" r="120" fill="url(#glare)"/>
  </g><g filter="url(#soft)">
    <circle cx="325" cy="270" r="105" fill="#111a17"/>
    <circle cx="325" cy="270" r="90.3" fill="#F6F1E6"/><ellipse cx="369.7" cy="237.1" rx="7.4" ry="4.7" fill="#E4DCCB" transform="rotate(20 369.7 237.1)"/><ellipse cx="373.5" cy="305.9" rx="7.4" ry="4.7" fill="#E4DCCB" transform="rotate(127 373.5 305.9)"/><ellipse cx="297.0" cy="205.4" rx="7.4" ry="4.7" fill="#E4DCCB" transform="rotate(66 297.0 205.4)"/><ellipse cx="269.3" cy="228.8" rx="7.4" ry="4.7" fill="#E4DCCB" transform="rotate(65 269.3 228.8)"/><ellipse cx="272.4" cy="301.3" rx="7.4" ry="4.7" fill="#E4DCCB" transform="rotate(69 272.4 301.3)"/><ellipse cx="269.4" cy="269.0" rx="7.4" ry="4.7" fill="#E4DCCB" transform="rotate(70 269.4 269.0)"/><ellipse cx="267.7" cy="279.1" rx="7.4" ry="4.7" fill="#E4DCCB" transform="rotate(8 267.7 279.1)"/><ellipse cx="363.5" cy="224.9" rx="7.4" ry="4.7" fill="#E4DCCB" transform="rotate(51 363.5 224.9)"/><ellipse cx="394.1" cy="274.0" rx="7.4" ry="4.7" fill="#E4DCCB" transform="rotate(134 394.1 274.0)"/><ellipse cx="327.6" cy="350.9" rx="7.4" ry="4.7" fill="#E4DCCB" transform="rotate(59 327.6 350.9)"/><ellipse cx="265.2" cy="289.7" rx="7.4" ry="4.7" fill="#E4DCCB" transform="rotate(146 265.2 289.7)"/><ellipse cx="343.6" cy="192.2" rx="7.4" ry="4.7" fill="#E4DCCB" transform="rotate(133 343.6 192.2)"/><ellipse cx="331.7" cy="349.6" rx="7.4" ry="4.7" fill="#E4DCCB" transform="rotate(0 331.7 349.6)"/><ellipse cx="320.1" cy="198.8" rx="7.4" ry="4.7" fill="#E4DCCB" transform="rotate(175 320.1 198.8)"/>
    <circle cx="325" cy="270" r="39.9" fill="#6B3B1E"/>
    <circle cx="312.4" cy="280.5" r="16.8" fill="#A2643A" opacity=".9"/>
    <circle cx="325" cy="270" r="105" fill="url(#glare)"/>
  </g><g filter="url(#soft)">
    <circle cx="475" cy="270" r="105" fill="#111a17"/>
    <circle cx="475" cy="270" r="90.3" fill="#F6F1E6"/><ellipse cx="550.4" cy="272.4" rx="7.4" ry="4.7" fill="#E4DCCB" transform="rotate(169 550.4 272.4)"/><ellipse cx="418.4" cy="296.7" rx="7.4" ry="4.7" fill="#E4DCCB" transform="rotate(61 418.4 296.7)"/><ellipse cx="427.0" cy="236.0" rx="7.4" ry="4.7" fill="#E4DCCB" transform="rotate(63 427.0 236.0)"/><ellipse cx="475.0" cy="207.5" rx="7.4" ry="4.7" fill="#E4DCCB" transform="rotate(168 475.0 207.5)"/><ellipse cx="477.2" cy="324.3" rx="7.4" ry="4.7" fill="#E4DCCB" transform="rotate(19 477.2 324.3)"/><ellipse cx="555.1" cy="269.3" rx="7.4" ry="4.7" fill="#E4DCCB" transform="rotate(143 555.1 269.3)"/><ellipse cx="425.2" cy="217.2" rx="7.4" ry="4.7" fill="#E4DCCB" transform="rotate(4 425.2 217.2)"/><ellipse cx="528.3" cy="312.6" rx="7.4" ry="4.7" fill="#E4DCCB" transform="rotate(80 528.3 312.6)"/><ellipse cx="428.3" cy="336.2" rx="7.4" ry="4.7" fill="#E4DCCB" transform="rotate(122 428.3 336.2)"/><ellipse cx="486.4" cy="351.0" rx="7.4" ry="4.7" fill="#E4DCCB" transform="rotate(87 486.4 351.0)"/><ellipse cx="432.2" cy="330.1" rx="7.4" ry="4.7" fill="#E4DCCB" transform="rotate(163 432.2 330.1)"/><ellipse cx="474.5" cy="333.5" rx="7.4" ry="4.7" fill="#E4DCCB" transform="rotate(130 474.5 333.5)"/><ellipse cx="405.1" cy="291.6" rx="7.4" ry="4.7" fill="#E4DCCB" transform="rotate(32 405.1 291.6)"/><ellipse cx="540.2" cy="265.4" rx="7.4" ry="4.7" fill="#E4DCCB" transform="rotate(109 540.2 265.4)"/>
    <circle cx="475" cy="270" r="39.9" fill="#6B3B1E"/>
    <circle cx="462.4" cy="280.5" r="16.8" fill="#A2643A" opacity=".9"/>
    <circle cx="475" cy="270" r="105" fill="url(#glare)"/>
  </g>
  <text x="400" y="764" text-anchor="middle" font-family="Jost, sans-serif" font-size="27" letter-spacing="2" fill="#BC914C" opacity=".55">ФОТО БЛЮДА</text>
  </svg>
