<svg xmlns="http://www.w3.org/2000/svg" viewBox="0 0 800 800"><defs>
  <radialGradient id="plate" cx="45%" cy="40%" r="60%">
    <stop offset="0" stop-color="#232828"/><stop offset=".7" stop-color="#121616"/><stop offset="1" stop-color="#060808"/>
  </radialGradient>
  <radialGradient id="slate" cx="35%" cy="25%" r="90%">
    <stop offset="0" stop-color="#1D2827"/><stop offset="1" stop-color="#0B1514"/>
  </radialGradient>
  <linearGradient id="glare" x1="0" y1="0" x2="1" y2="1">
    <stop offset="0" stop-color="#fff" stop-opacity=".22"/><stop offset=".5" stop-color="#fff" stop-opacity="0"/>
  </linearGradient>
  <filter id="soft" x="-20%" y="-20%" width="140%" height="140%">
    <feDropShadow dx="0" dy="6" stdDeviation="8" flood-color="#000" flood-opacity=".55"/>
  </filter></defs>
  <rect width="800" height="800" fill="url(#slate)"/>
  <path d="M0 656 Q 400 560 800 688 V 800 H 0z" fill="#000" opacity=".18"/>
  <g filter="url(#soft)">
    <circle cx="610" cy="380" r="60" fill="#111a17"/>
    <circle cx="610" cy="380" r="51.6" fill="#F6F1E6"/><ellipse cx="647.5" cy="380.0" rx="4.2" ry="2.7" fill="#E4DCCB" transform="rotate(56 647.5 380.0)"/><ellipse cx="652.7" cy="392.4" rx="4.2" ry="2.7" fill="#E4DCCB" transform="rotate(73 652.7 392.4)"/><ellipse cx="572.4" cy="375.8" rx="4.2" ry="2.7" fill="#E4DCCB" transform="rotate(85 572.4 375.8)"/><ellipse cx="603.4" cy="413.0" rx="4.2" ry="2.7" fill="#E4DCCB" transform="rotate(128 603.4 413.0)"/><ellipse cx="633.1" cy="408.1" rx="4.2" ry="2.7" fill="#E4DCCB" transform="rotate(105 633.1 408.1)"/><ellipse cx="626.9" cy="347.7" rx="4.2" ry="2.7" fill="#E4DCCB" transform="rotate(15 626.9 347.7)"/><ellipse cx="618.6" cy="421.5" rx="4.2" ry="2.7" fill="#E4DCCB" transform="rotate(106 618.6 421.5)"/><ellipse cx="574.2" cy="367.2" rx="4.2" ry="2.7" fill="#E4DCCB" transform="rotate(42 574.2 367.2)"/><ellipse cx="594.6" cy="420.5" rx="4.2" ry="2.7" fill="#E4DCCB" transform="rotate(2 594.6 420.5)"/><ellipse cx="623.9" cy="417.2" rx="4.2" ry="2.7" fill="#E4DCCB" transform="rotate(128 623.9 417.2)"/><ellipse cx="646.3" cy="383.1" rx="4.2" ry="2.7" fill="#E4DCCB" transform="rotate(159 646.3 383.1)"/><ellipse cx="578.7" cy="375.6" rx="4.2" ry="2.7" fill="#E4DCCB" transform="rotate(109 578.7 375.6)"/><ellipse cx="644.2" cy="371.0" rx="4.2" ry="2.7" fill="#E4DCCB" transform="rotate(162 644.2 371.0)"/><ellipse cx="651.8" cy="384.9" rx="4.2" ry="2.7" fill="#E4DCCB" transform="rotate(145 651.8 384.9)"/>
    <circle cx="610" cy="380" r="22.8" fill="#F37D2F"/>
    <circle cx="602.8" cy="386" r="9.6" fill="#FFB48A" opacity=".9"/>
    <circle cx="610" cy="380" r="60" fill="url(#glare)"/>
  </g><g filter="url(#soft)">
    <circle cx="569.9" cy="503.4" r="60" fill="#111a17"/>
    <circle cx="569.9" cy="503.4" r="51.6" fill="#F6F1E6"/><ellipse cx="603.0" cy="492.5" rx="4.2" ry="2.7" fill="#E4DCCB" transform="rotate(30 603.0 492.5)"/><ellipse cx="584.0" cy="459.7" rx="4.2" ry="2.7" fill="#E4DCCB" transform="rotate(131 584.0 459.7)"/><ellipse cx="613.3" cy="503.3" rx="4.2" ry="2.7" fill="#E4DCCB" transform="rotate(77 613.3 503.3)"/><ellipse cx="568.6" cy="543.7" rx="4.2" ry="2.7" fill="#E4DCCB" transform="rotate(4 568.6 543.7)"/><ellipse cx="611.9" cy="490.3" rx="4.2" ry="2.7" fill="#E4DCCB" transform="rotate(63 611.9 490.3)"/><ellipse cx="591.0" cy="482.1" rx="4.2" ry="2.7" fill="#E4DCCB" transform="rotate(119 591.0 482.1)"/><ellipse cx="607.3" cy="491.6" rx="4.2" ry="2.7" fill="#E4DCCB" transform="rotate(122 607.3 491.6)"/><ellipse cx="525.6" cy="500.8" rx="4.2" ry="2.7" fill="#E4DCCB" transform="rotate(78 525.6 500.8)"/><ellipse cx="611.9" cy="482.8" rx="4.2" ry="2.7" fill="#E4DCCB" transform="rotate(76 611.9 482.8)"/><ellipse cx="584.4" cy="467.7" rx="4.2" ry="2.7" fill="#E4DCCB" transform="rotate(40 584.4 467.7)"/><ellipse cx="599.4" cy="512.6" rx="4.2" ry="2.7" fill="#E4DCCB" transform="rotate(148 599.4 512.6)"/><ellipse cx="597.7" cy="526.1" rx="4.2" ry="2.7" fill="#E4DCCB" transform="rotate(99 597.7 526.1)"/><ellipse cx="542.8" cy="529.9" rx="4.2" ry="2.7" fill="#E4DCCB" transform="rotate(19 542.8 529.9)"/><ellipse cx="546.0" cy="526.1" rx="4.2" ry="2.7" fill="#E4DCCB" transform="rotate(103 546.0 526.1)"/>
    <circle cx="569.9" cy="503.4" r="22.8" fill="#F37D2F"/>
    <circle cx="562.6999999999999" cy="509.4" r="9.6" fill="#FFB48A" opacity=".9"/>
    <circle cx="569.9" cy="503.4" r="60" fill="url(#glare)"/>
  </g><g filter="url(#soft)">
    <circle cx="464.9" cy="579.7" r="60" fill="#111a17"/>
    <circle cx="464.9" cy="579.7" r="51.6" fill="#F6F1E6"/><ellipse cx="421.7" cy="565.4" rx="4.2" ry="2.7" fill="#E4DCCB" transform="rotate(17 421.7 565.4)"/><ellipse cx="511.2" cy="573.7" rx="4.2" ry="2.7" fill="#E4DCCB" transform="rotate(139 511.2 573.7)"/><ellipse cx="431.7" cy="565.3" rx="4.2" ry="2.7" fill="#E4DCCB" transform="rotate(155 431.7 565.3)"/><ellipse cx="441.5" cy="549.2" rx="4.2" ry="2.7" fill="#E4DCCB" transform="rotate(55 441.5 549.2)"/><ellipse cx="431.3" cy="572.7" rx="4.2" ry="2.7" fill="#E4DCCB" transform="rotate(173 431.3 572.7)"/><ellipse cx="423.8" cy="560.6" rx="4.2" ry="2.7" fill="#E4DCCB" transform="rotate(26 423.8 560.6)"/><ellipse cx="489.8" cy="618.6" rx="4.2" ry="2.7" fill="#E4DCCB" transform="rotate(124 489.8 618.6)"/><ellipse cx="454.5" cy="622.3" rx="4.2" ry="2.7" fill="#E4DCCB" transform="rotate(65 454.5 622.3)"/><ellipse cx="492.5" cy="553.4" rx="4.2" ry="2.7" fill="#E4DCCB" transform="rotate(91 492.5 553.4)"/><ellipse cx="468.6" cy="611.2" rx="4.2" ry="2.7" fill="#E4DCCB" transform="rotate(143 468.6 611.2)"/><ellipse cx="489.0" cy="555.1" rx="4.2" ry="2.7" fill="#E4DCCB" transform="rotate(136 489.0 555.1)"/><ellipse cx="441.0" cy="617.2" rx="4.2" ry="2.7" fill="#E4DCCB" transform="rotate(78 441.0 617.2)"/><ellipse cx="495.2" cy="579.9" rx="4.2" ry="2.7" fill="#E4DCCB" transform="rotate(5 495.2 579.9)"/><ellipse cx="432.2" cy="567.4" rx="4.2" ry="2.7" fill="#E4DCCB" transform="rotate(145 432.2 567.4)"/>
    <circle cx="464.9" cy="579.7" r="22.8" fill="#5E8F3E"/>
    <circle cx="457.7" cy="585.7" r="9.6" fill="#CFE3A8" opacity=".9"/>
    <circle cx="464.9" cy="579.7" r="60" fill="url(#glare)"/>
  </g><g filter="url(#soft)">
    <circle cx="335.1" cy="579.7" r="60" fill="#111a17"/>
    <circle cx="335.1" cy="579.7" r="51.6" fill="#F6F1E6"/><ellipse cx="318.5" cy="616.9" rx="4.2" ry="2.7" fill="#E4DCCB" transform="rotate(178 318.5 616.9)"/><ellipse cx="292.4" cy="581.6" rx="4.2" ry="2.7" fill="#E4DCCB" transform="rotate(31 292.4 581.6)"/><ellipse cx="313.3" cy="548.2" rx="4.2" ry="2.7" fill="#E4DCCB" transform="rotate(43 313.3 548.2)"/><ellipse cx="331.5" cy="617.9" rx="4.2" ry="2.7" fill="#E4DCCB" transform="rotate(112 331.5 617.9)"/><ellipse cx="301.2" cy="588.6" rx="4.2" ry="2.7" fill="#E4DCCB" transform="rotate(88 301.2 588.6)"/><ellipse cx="303.2" cy="577.8" rx="4.2" ry="2.7" fill="#E4DCCB" transform="rotate(113 303.2 577.8)"/><ellipse cx="350.6" cy="544.6" rx="4.2" ry="2.7" fill="#E4DCCB" transform="rotate(100 350.6 544.6)"/><ellipse cx="344.8" cy="621.6" rx="4.2" ry="2.7" fill="#E4DCCB" transform="rotate(67 344.8 621.6)"/><ellipse cx="366.5" cy="603.8" rx="4.2" ry="2.7" fill="#E4DCCB" transform="rotate(69 366.5 603.8)"/><ellipse cx="347.6" cy="616.2" rx="4.2" ry="2.7" fill="#E4DCCB" transform="rotate(165 347.6 616.2)"/><ellipse cx="309.4" cy="600.0" rx="4.2" ry="2.7" fill="#E4DCCB" transform="rotate(150 309.4 600.0)"/><ellipse cx="356.3" cy="543.2" rx="4.2" ry="2.7" fill="#E4DCCB" transform="rotate(43 356.3 543.2)"/><ellipse cx="328.2" cy="613.0" rx="4.2" ry="2.7" fill="#E4DCCB" transform="rotate(56 328.2 613.0)"/><ellipse cx="371.4" cy="559.3" rx="4.2" ry="2.7" fill="#E4DCCB" transform="rotate(101 371.4 559.3)"/>
    <circle cx="335.1" cy="579.7" r="22.8" fill="#F37D2F"/>
    <circle cx="327.90000000000003" cy="585.7" r="9.6" fill="#FFB48A" opacity=".9"/>
    <circle cx="335.1" cy="579.7" r="60" fill="url(#glare)"/>
  </g><g filter="url(#soft)">
    <circle cx="230.1" cy="503.4" r="60" fill="#111a17"/>
    <circle cx="230.1" cy="503.4" r="51.6" fill="#F6F1E6"/><ellipse cx="196.0" cy="521.5" rx="4.2" ry="2.7" fill="#E4DCCB" transform="rotate(79 196.0 521.5)"/><ellipse cx="228.6" cy="473.2" rx="4.2" ry="2.7" fill="#E4DCCB" transform="rotate(141 228.6 473.2)"/><ellipse cx="236.1" cy="473.7" rx="4.2" ry="2.7" fill="#E4DCCB" transform="rotate(141 236.1 473.7)"/><ellipse cx="189.9" cy="506.9" rx="4.2" ry="2.7" fill="#E4DCCB" transform="rotate(1 189.9 506.9)"/><ellipse cx="256.1" cy="465.0" rx="4.2" ry="2.7" fill="#E4DCCB" transform="rotate(161 256.1 465.0)"/><ellipse cx="230.4" cy="536.2" rx="4.2" ry="2.7" fill="#E4DCCB" transform="rotate(66 230.4 536.2)"/><ellipse cx="183.9" cy="510.6" rx="4.2" ry="2.7" fill="#E4DCCB" transform="rotate(135 183.9 510.6)"/><ellipse cx="197.6" cy="509.7" rx="4.2" ry="2.7" fill="#E4DCCB" transform="rotate(101 197.6 509.7)"/><ellipse cx="193.1" cy="474.9" rx="4.2" ry="2.7" fill="#E4DCCB" transform="rotate(56 193.1 474.9)"/><ellipse cx="262.7" cy="522.6" rx="4.2" ry="2.7" fill="#E4DCCB" transform="rotate(172 262.7 522.6)"/><ellipse cx="245.6" cy="476.3" rx="4.2" ry="2.7" fill="#E4DCCB" transform="rotate(104 245.6 476.3)"/><ellipse cx="223.0" cy="459.6" rx="4.2" ry="2.7" fill="#E4DCCB" transform="rotate(89 223.0 459.6)"/><ellipse cx="208.4" cy="528.3" rx="4.2" ry="2.7" fill="#E4DCCB" transform="rotate(164 208.4 528.3)"/><ellipse cx="212.6" cy="476.2" rx="4.2" ry="2.7" fill="#E4DCCB" transform="rotate(99 212.6 476.2)"/>
    <circle cx="230.1" cy="503.4" r="22.8" fill="#F37D2F"/>
    <circle cx="222.9" cy="509.4" r="9.6" fill="#FFB48A" opacity=".9"/>
    <circle cx="230.1" cy="503.4" r="60" fill="url(#glare)"/>
  </g><g filter="url(#soft)">
    <circle cx="190" cy="380" r="60" fill="#111a17"/>
    <circle cx="190" cy="380" r="51.6" fill="#F6F1E6"/><ellipse cx="167.3" cy="413.9" rx="4.2" ry="2.7" fill="#E4DCCB" transform="rotate(151 167.3 413.9)"/><ellipse cx="228.9" cy="386.7" rx="4.2" ry="2.7" fill="#E4DCCB" transform="rotate(156 228.9 386.7)"/><ellipse cx="205.3" cy="339.8" rx="4.2" ry="2.7" fill="#E4DCCB" transform="rotate(28 205.3 339.8)"/><ellipse cx="200.6" cy="421.2" rx="4.2" ry="2.7" fill="#E4DCCB" transform="rotate(139 200.6 421.2)"/><ellipse cx="224.5" cy="404.0" rx="4.2" ry="2.7" fill="#E4DCCB" transform="rotate(152 224.5 404.0)"/><ellipse cx="164.2" cy="404.8" rx="4.2" ry="2.7" fill="#E4DCCB" transform="rotate(90 164.2 404.8)"/><ellipse cx="200.6" cy="409.5" rx="4.2" ry="2.7" fill="#E4DCCB" transform="rotate(94 200.6 409.5)"/><ellipse cx="201.6" cy="335.0" rx="4.2" ry="2.7" fill="#E4DCCB" transform="rotate(95 201.6 335.0)"/><ellipse cx="233.0" cy="367.2" rx="4.2" ry="2.7" fill="#E4DCCB" transform="rotate(66 233.0 367.2)"/><ellipse cx="221.6" cy="358.9" rx="4.2" ry="2.7" fill="#E4DCCB" transform="rotate(119 221.6 358.9)"/><ellipse cx="175.5" cy="338.4" rx="4.2" ry="2.7" fill="#E4DCCB" transform="rotate(25 175.5 338.4)"/><ellipse cx="211.2" cy="358.3" rx="4.2" ry="2.7" fill="#E4DCCB" transform="rotate(58 211.2 358.3)"/><ellipse cx="231.5" cy="377.5" rx="4.2" ry="2.7" fill="#E4DCCB" transform="rotate(168 231.5 377.5)"/><ellipse cx="195.6" cy="350.4" rx="4.2" ry="2.7" fill="#E4DCCB" transform="rotate(1 195.6 350.4)"/>
    <circle cx="190" cy="380" r="22.8" fill="#5E8F3E"/>
    <circle cx="182.8" cy="386" r="9.6" fill="#CFE3A8" opacity=".9"/>
    <circle cx="190" cy="380" r="60" fill="url(#glare)"/>
  </g><g filter="url(#soft)">
    <circle cx="230.1" cy="256.6" r="60" fill="#111a17"/>
    <circle cx="230.1" cy="256.6" r="51.6" fill="#F6F1E6"/><ellipse cx="200.1" cy="255.3" rx="4.2" ry="2.7" fill="#E4DCCB" transform="rotate(91 200.1 255.3)"/><ellipse cx="198.2" cy="235.0" rx="4.2" ry="2.7" fill="#E4DCCB" transform="rotate(87 198.2 235.0)"/><ellipse cx="228.4" cy="289.9" rx="4.2" ry="2.7" fill="#E4DCCB" transform="rotate(143 228.4 289.9)"/><ellipse cx="253.0" cy="277.0" rx="4.2" ry="2.7" fill="#E4DCCB" transform="rotate(161 253.0 277.0)"/><ellipse cx="192.6" cy="282.4" rx="4.2" ry="2.7" fill="#E4DCCB" transform="rotate(63 192.6 282.4)"/><ellipse cx="203.9" cy="293.2" rx="4.2" ry="2.7" fill="#E4DCCB" transform="rotate(49 203.9 293.2)"/><ellipse cx="193.5" cy="262.7" rx="4.2" ry="2.7" fill="#E4DCCB" transform="rotate(51 193.5 262.7)"/><ellipse cx="269.2" cy="246.9" rx="4.2" ry="2.7" fill="#E4DCCB" transform="rotate(22 269.2 246.9)"/><ellipse cx="191.3" cy="245.2" rx="4.2" ry="2.7" fill="#E4DCCB" transform="rotate(116 191.3 245.2)"/><ellipse cx="255.7" cy="276.2" rx="4.2" ry="2.7" fill="#E4DCCB" transform="rotate(22 255.7 276.2)"/><ellipse cx="263.8" cy="284.5" rx="4.2" ry="2.7" fill="#E4DCCB" transform="rotate(123 263.8 284.5)"/><ellipse cx="268.3" cy="260.7" rx="4.2" ry="2.7" fill="#E4DCCB" transform="rotate(68 268.3 260.7)"/><ellipse cx="194.9" cy="227.1" rx="4.2" ry="2.7" fill="#E4DCCB" transform="rotate(20 194.9 227.1)"/><ellipse cx="225.9" cy="212.2" rx="4.2" ry="2.7" fill="#E4DCCB" transform="rotate(149 225.9 212.2)"/>
    <circle cx="230.1" cy="256.6" r="22.8" fill="#F37D2F"/>
    <circle cx="222.9" cy="262.6" r="9.6" fill="#FFB48A" opacity=".9"/>
    <circle cx="230.1" cy="256.6" r="60" fill="url(#glare)"/>
  </g><g filter="url(#soft)">
    <circle cx="335.1" cy="180.3" r="60" fill="#111a17"/>
    <circle cx="335.1" cy="180.3" r="51.6" fill="#F6F1E6"/><ellipse cx="306.1" cy="166.8" rx="4.2" ry="2.7" fill="#E4DCCB" transform="rotate(74 306.1 166.8)"/><ellipse cx="375.9" cy="175.6" rx="4.2" ry="2.7" fill="#E4DCCB" transform="rotate(133 375.9 175.6)"/><ellipse cx="316.2" cy="151.1" rx="4.2" ry="2.7" fill="#E4DCCB" transform="rotate(65 316.2 151.1)"/><ellipse cx="374.7" cy="172.2" rx="4.2" ry="2.7" fill="#E4DCCB" transform="rotate(104 374.7 172.2)"/><ellipse cx="296.6" cy="181.0" rx="4.2" ry="2.7" fill="#E4DCCB" transform="rotate(125 296.6 181.0)"/><ellipse cx="325.6" cy="215.6" rx="4.2" ry="2.7" fill="#E4DCCB" transform="rotate(141 325.6 215.6)"/><ellipse cx="366.7" cy="201.2" rx="4.2" ry="2.7" fill="#E4DCCB" transform="rotate(112 366.7 201.2)"/><ellipse cx="330.8" cy="140.9" rx="4.2" ry="2.7" fill="#E4DCCB" transform="rotate(140 330.8 140.9)"/><ellipse cx="315.1" cy="212.4" rx="4.2" ry="2.7" fill="#E4DCCB" transform="rotate(170 315.1 212.4)"/><ellipse cx="357.8" cy="203.1" rx="4.2" ry="2.7" fill="#E4DCCB" transform="rotate(85 357.8 203.1)"/><ellipse cx="291.5" cy="183.4" rx="4.2" ry="2.7" fill="#E4DCCB" transform="rotate(75 291.5 183.4)"/><ellipse cx="294.1" cy="188.3" rx="4.2" ry="2.7" fill="#E4DCCB" transform="rotate(133 294.1 188.3)"/><ellipse cx="353.0" cy="154.7" rx="4.2" ry="2.7" fill="#E4DCCB" transform="rotate(58 353.0 154.7)"/><ellipse cx="364.4" cy="163.1" rx="4.2" ry="2.7" fill="#E4DCCB" transform="rotate(47 364.4 163.1)"/>
    <circle cx="335.1" cy="180.3" r="22.8" fill="#F37D2F"/>
    <circle cx="327.90000000000003" cy="186.3" r="9.6" fill="#FFB48A" opacity=".9"/>
    <circle cx="335.1" cy="180.3" r="60" fill="url(#glare)"/>
  </g><g filter="url(#soft)">
    <circle cx="464.9" cy="180.3" r="60" fill="#111a17"/>
    <circle cx="464.9" cy="180.3" r="51.6" fill="#F6F1E6"/><ellipse cx="504.9" cy="199.8" rx="4.2" ry="2.7" fill="#E4DCCB" transform="rotate(12 504.9 199.8)"/><ellipse cx="474.7" cy="145.1" rx="4.2" ry="2.7" fill="#E4DCCB" transform="rotate(78 474.7 145.1)"/><ellipse cx="447.6" cy="155.5" rx="4.2" ry="2.7" fill="#E4DCCB" transform="rotate(167 447.6 155.5)"/><ellipse cx="440.6" cy="199.8" rx="4.2" ry="2.7" fill="#E4DCCB" transform="rotate(61 440.6 199.8)"/><ellipse cx="434.7" cy="173.1" rx="4.2" ry="2.7" fill="#E4DCCB" transform="rotate(123 434.7 173.1)"/><ellipse cx="459.1" cy="216.9" rx="4.2" ry="2.7" fill="#E4DCCB" transform="rotate(119 459.1 216.9)"/><ellipse cx="489.3" cy="147.4" rx="4.2" ry="2.7" fill="#E4DCCB" transform="rotate(66 489.3 147.4)"/><ellipse cx="474.1" cy="135.1" rx="4.2" ry="2.7" fill="#E4DCCB" transform="rotate(135 474.1 135.1)"/><ellipse cx="488.6" cy="203.0" rx="4.2" ry="2.7" fill="#E4DCCB" transform="rotate(2 488.6 203.0)"/><ellipse cx="491.9" cy="193.6" rx="4.2" ry="2.7" fill="#E4DCCB" transform="rotate(17 491.9 193.6)"/><ellipse cx="502.5" cy="163.4" rx="4.2" ry="2.7" fill="#E4DCCB" transform="rotate(128 502.5 163.4)"/><ellipse cx="456.3" cy="220.0" rx="4.2" ry="2.7" fill="#E4DCCB" transform="rotate(2 456.3 220.0)"/><ellipse cx="498.9" cy="177.8" rx="4.2" ry="2.7" fill="#E4DCCB" transform="rotate(138 498.9 177.8)"/><ellipse cx="472.0" cy="137.7" rx="4.2" ry="2.7" fill="#E4DCCB" transform="rotate(144 472.0 137.7)"/>
    <circle cx="464.9" cy="180.3" r="22.8" fill="#5E8F3E"/>
    <circle cx="457.7" cy="186.3" r="9.6" fill="#CFE3A8" opacity=".9"/>
    <circle cx="464.9" cy="180.3" r="60" fill="url(#glare)"/>
  </g><g filter="url(#soft)">
    <circle cx="569.9" cy="256.6" r="60" fill="#111a17"/>
    <circle cx="569.9" cy="256.6" r="51.6" fill="#F6F1E6"/><ellipse cx="541.2" cy="275.7" rx="4.2" ry="2.7" fill="#E4DCCB" transform="rotate(163 541.2 275.7)"/><ellipse cx="551.9" cy="231.0" rx="4.2" ry="2.7" fill="#E4DCCB" transform="rotate(52 551.9 231.0)"/><ellipse cx="592.7" cy="235.9" rx="4.2" ry="2.7" fill="#E4DCCB" transform="rotate(81 592.7 235.9)"/><ellipse cx="601.3" cy="226.8" rx="4.2" ry="2.7" fill="#E4DCCB" transform="rotate(168 601.3 226.8)"/><ellipse cx="544.4" cy="234.7" rx="4.2" ry="2.7" fill="#E4DCCB" transform="rotate(144 544.4 234.7)"/><ellipse cx="603.6" cy="272.4" rx="4.2" ry="2.7" fill="#E4DCCB" transform="rotate(126 603.6 272.4)"/><ellipse cx="565.6" cy="210.3" rx="4.2" ry="2.7" fill="#E4DCCB" transform="rotate(51 565.6 210.3)"/><ellipse cx="545.9" cy="280.8" rx="4.2" ry="2.7" fill="#E4DCCB" transform="rotate(161 545.9 280.8)"/><ellipse cx="570.0" cy="300.1" rx="4.2" ry="2.7" fill="#E4DCCB" transform="rotate(166 570.0 300.1)"/><ellipse cx="610.1" cy="279.8" rx="4.2" ry="2.7" fill="#E4DCCB" transform="rotate(16 610.1 279.8)"/><ellipse cx="534.6" cy="245.8" rx="4.2" ry="2.7" fill="#E4DCCB" transform="rotate(18 534.6 245.8)"/><ellipse cx="596.5" cy="289.5" rx="4.2" ry="2.7" fill="#E4DCCB" transform="rotate(96 596.5 289.5)"/><ellipse cx="533.8" cy="274.3" rx="4.2" ry="2.7" fill="#E4DCCB" transform="rotate(139 533.8 274.3)"/><ellipse cx="573.7" cy="210.6" rx="4.2" ry="2.7" fill="#E4DCCB" transform="rotate(48 573.7 210.6)"/>
    <circle cx="569.9" cy="256.6" r="22.8" fill="#F37D2F"/>
    <circle cx="562.6999999999999" cy="262.6" r="9.6" fill="#FFB48A" opacity=".9"/>
    <circle cx="569.9" cy="256.6" r="60" fill="url(#glare)"/>
  </g><g transform="translate(400 380) rotate(-10)" filter="url(#soft)">
    <rect x="-76.5" y="-34.2" width="153" height="68.4" rx="32.4" fill="#EDE6D6"/>
    <rect x="-90" y="-40.5" width="180" height="81" rx="37.8" fill="#F37D2F"/><path d="M-40.5 -37.8 q 10.799999999999999 36 0 75.6" stroke="#FFB48A" stroke-width="5.3999999999999995" fill="none" opacity=".75"/><path d="M-8.099999999999994 -37.8 q 10.799999999999999 36 0 75.6" stroke="#FFB48A" stroke-width="5.3999999999999995" fill="none" opacity=".75"/><path d="M24.299999999999997 -37.8 q 10.799999999999999 36 0 75.6" stroke="#FFB48A" stroke-width="5.3999999999999995" fill="none" opacity=".75"/>
    <rect x="-90" y="-40.5" width="180" height="81" rx="37.8" fill="url(#glare)"/>
  </g>
  <text x="400" y="764" text-anchor="middle" font-family="Jost, sans-serif" font-size="27" letter-spacing="2" fill="#BC914C" opacity=".55">ФОТО БЛЮДА</text>
  </svg>
